<svg width="1475" height="252" viewBox="0 0 1475 252" fill="none" xmlns="http://www.w3.org/2000/svg">
<path d="M211.762 134.803C211.762 141.262 211.762 147.722 211.664 154.24C211.469 154.468 211.304 154.629 211.283 154.808C211.098 156.426 211.01 158.059 210.756 159.665C210.124 163.661 209.567 167.677 208.711 171.627C207.302 178.127 204.819 184.274 201.887 190.22C199.162 195.744 196.06 201.069 192.191 205.883C188.848 210.043 185.464 214.184 181.861 218.117C179.575 220.612 176.934 222.807 174.31 224.964C171.113 227.591 167.89 230.219 164.459 232.52C158.34 236.622 151.883 240.152 145.02 242.888C142.982 243.7 140.929 244.472 138.638 245.357C140.086 242.894 141.462 240.755 142.64 238.513C145.386 233.284 147.659 227.859 149.49 222.228C152.324 213.509 154.13 204.592 154.601 195.463C154.929 189.108 155.001 182.689 153.859 176.392C153.055 171.959 151.979 167.548 150.639 163.247C148.812 157.38 146.007 151.982 141.96 147.258C138.73 143.486 135.052 140.365 130.423 138.487C128.843 137.846 127.187 137.391 125.258 136.748C125.638 137.53 125.853 137.923 126.024 138.334C127.296 141.388 128.862 144.361 129.747 147.524C130.756 151.129 131.512 154.884 131.726 158.611C131.967 162.815 131.797 167.102 131.23 171.275C130.556 176.239 128.89 180.965 126.403 185.398C123.676 190.26 120.385 194.534 115.606 197.558C112.067 199.797 108.273 201.4 104.118 201.79C98.3134 202.335 92.7933 201.209 87.6805 198.275C82.9117 195.539 78.8305 192.058 75.6597 187.541C74.9059 186.467 74.0969 185.432 73.1236 184.124C72.5838 186.159 72.1754 187.871 71.6746 189.557C69.7478 196.04 68.8513 202.709 68.3233 209.414C68.0312 213.122 68.2627 216.873 68.271 220.605C68.2805 224.858 68.9483 229.03 69.7308 233.2C70.7791 238.787 72.3539 244.183 74.9729 249.248C74.1384 249.248 73.304 249.248 72.432 249.162C72.2267 248.971 72.0714 248.812 71.8891 248.769C67.0209 247.625 62.1039 246.659 57.2903 245.32C50.3444 243.388 43.7468 240.548 37.4776 236.961C32.8503 234.313 28.4386 231.333 24.5668 227.684C21.7392 225.019 19.1455 222.076 16.6686 219.075C11.6717 213.02 8.18822 206.076 5.49023 198.753C3.02286 192.056 1.23816 185.174 0.723616 178.013C0.710651 177.832 0.412951 177.672 0.248047 177.503C0.248048 173.691 0.248048 169.879 0.354881 165.945C0.638215 164.735 0.771996 163.638 0.998944 162.561C1.78889 158.812 2.46558 155.032 3.45523 151.335C4.93406 145.812 7.38569 140.679 10.1818 135.696C14.4091 128.163 19.7869 121.506 25.6788 115.252C27.7565 113.047 30.0619 111.046 32.3543 109.056C34.9344 106.816 37.5798 104.648 40.264 102.533C44.343 99.3205 48.6673 96.3917 52.5368 92.9481C56.0595 89.8132 59.3574 86.3491 62.3207 82.6798C66.9902 76.8977 70.865 70.5749 72.7292 63.2631C73.6949 59.4754 74.8232 55.6527 75.1134 51.7884C75.4866 46.8192 75.397 41.7959 74.5154 36.8112C73.3406 30.1692 71.3721 23.7992 68.5159 17.7118C65.6037 11.5052 62.1484 5.61245 57.8433 0.248291C58.6777 0.248291 59.5122 0.248291 60.3833 0.334278C60.8769 0.533054 61.3321 0.654076 61.7912 0.757397C68.4428 2.25421 75.1248 3.62896 81.7367 5.28406C86.4608 6.46662 91.1095 7.96598 95.7574 9.43305C99.7163 10.6826 103.682 11.9459 107.545 13.4565C113.817 15.9087 120.058 18.4547 126.215 21.1793C130.389 23.0259 134.441 25.1629 138.465 27.3244C142.023 29.2356 145.567 31.2078 148.936 33.4272C153.765 36.6079 158.539 39.8953 163.132 43.4047C167.111 46.4454 170.902 49.754 174.602 53.1349C178.69 56.8709 182.317 61.0496 185.743 65.4168C189.654 70.4016 193.197 75.6115 196.111 81.2312C197.674 84.247 199.179 87.307 200.477 90.4435C202.203 94.6125 203.904 98.8126 205.244 103.115C206.667 107.688 207.709 112.383 208.82 117.048C210.148 122.625 210.929 128.29 211.284 134.015C211.301 134.286 211.596 134.54 211.762 134.803ZM91.7246 26.563C90.8183 26.2992 89.912 26.0353 88.816 25.7163C88.9121 26.34 88.9674 26.7302 89.0329 27.1187C89.8067 31.708 90.7793 36.2752 91.2893 40.8936C91.6423 44.0896 91.4874 47.3628 91.3214 50.5893C91.1585 53.7548 90.927 56.9515 90.3048 60.05C89.5129 63.993 88.5065 67.922 87.2129 71.728C85.5483 76.6254 83.2906 81.2769 80.5561 85.705C77.4919 90.6672 74.0359 95.3267 70.0559 99.561C67.3004 102.493 64.3089 105.22 61.2704 107.863C58.4221 110.34 55.3526 112.562 52.4177 114.942C47.9931 118.531 43.5347 122.082 39.2238 125.803C37.1753 127.572 35.4135 129.677 33.5616 131.666C32.3084 133.013 31.0286 134.351 29.9274 135.818C26.6209 140.223 23.6419 144.834 21.3555 149.872C18.6853 155.754 17.0847 161.92 16.6718 168.347C16.4144 172.355 16.719 176.36 17.3344 180.358C18.2523 186.32 20.1639 191.952 22.6291 197.402C24.3012 201.1 26.5081 204.498 29.0113 207.714C31.6509 211.104 34.6861 214.07 38.0352 216.736C41.3656 219.387 44.9911 221.567 48.8045 223.44C49.8301 223.944 50.8995 224.358 52.2519 224.945C52.1114 223.075 51.8746 221.568 51.9087 220.067C52.0074 215.713 52.1072 211.355 52.4138 207.013C52.6567 203.572 53.186 200.15 53.6226 196.724C54.3599 190.937 55.766 185.294 57.4867 179.735C59.6081 172.881 61.8487 166.064 64.0198 159.226C64.996 156.151 65.9135 153.058 66.8874 149.983C67.3869 148.405 67.952 146.849 68.5296 145.16C68.8579 145.642 69.073 145.935 69.264 146.242C71.7588 150.259 74.2487 154.278 76.743 158.295C79.6217 162.931 82.5263 167.552 85.3771 172.205C87.8885 176.304 90.663 180.17 95.0211 182.494C97.8681 184.012 100.87 184.755 104.143 183.764C108.873 182.332 111.538 178.838 113.428 174.611C114.55 172.101 115.432 169.476 115.444 166.666C115.458 163.597 115.731 160.492 115.354 157.469C114.855 153.459 113.432 149.679 111.463 146.089C108.113 139.982 104.932 133.783 101.673 127.626C99.6468 123.797 97.6012 119.977 95.5764 116.147C95.0813 115.211 94.6344 114.249 94.0788 113.123C95.0382 113.255 95.7552 113.393 96.4784 113.446C100.067 113.708 103.68 113.774 107.241 114.24C111.487 114.795 115.722 115.536 119.903 116.464C127.979 118.256 135.498 121.44 142.372 126.079C146.991 129.196 151.156 132.791 154.703 137.14C157.746 140.87 160.413 144.84 162.515 149.124C165.164 154.524 167.027 160.23 168.379 166.122C169.694 171.85 170.495 177.649 170.722 183.476C170.976 189.996 171.119 196.557 170.069 203.056C169.926 203.941 169.938 204.851 169.858 206.045C170.508 205.324 170.947 204.818 171.405 204.331C172.871 202.773 174.494 201.336 175.783 199.644C178.679 195.846 181.565 192.024 184.165 188.023C186.944 183.749 189.171 179.15 190.911 174.339C192.606 169.651 193.875 164.856 194.396 159.885C194.82 155.836 195.506 151.787 195.552 147.732C195.609 142.656 195.196 137.569 194.855 132.496C194.667 129.702 194.414 126.883 193.828 124.152C192.789 119.306 191.636 114.47 190.239 109.716C188.012 102.139 184.9 94.9207 180.984 88.0381C176.914 80.8833 171.875 74.4826 166.209 68.5614C164.227 66.4898 162.053 64.5932 159.88 62.7158C157.263 60.4544 154.631 58.1963 151.865 56.1255C149.017 53.9946 146.074 51.9695 143.04 50.1155C138.04 47.0594 133 44.053 127.847 41.2659C124.196 39.2913 120.366 37.6303 116.552 35.9797C112.334 34.1547 108.068 32.4317 103.774 30.7934C99.8588 29.2999 95.878 27.9793 91.7246 26.563Z" fill="#F25D53"/>
<path d="M350.886 198.854C341.547 198.854 333.17 197.206 325.754 193.91C318.338 190.477 312.433 185.876 308.038 180.108C303.781 174.34 301.446 167.954 301.034 160.95H330.08C330.629 165.345 332.758 168.984 336.466 171.868C340.311 174.752 345.049 176.194 350.68 176.194C356.173 176.194 360.431 175.095 363.452 172.898C366.611 170.701 368.19 167.885 368.19 164.452C368.19 160.744 366.267 157.997 362.422 156.212C358.714 154.289 352.74 152.229 344.5 150.032C335.985 147.972 328.981 145.843 323.488 143.646C318.132 141.449 313.463 138.084 309.48 133.552C305.635 129.02 303.712 122.909 303.712 115.218C303.712 108.901 305.497 103.133 309.068 97.9141C312.776 92.6955 317.995 88.5755 324.724 85.5541C331.591 82.5328 339.625 81.0221 348.826 81.0221C362.422 81.0221 373.271 84.4555 381.374 91.3221C389.477 98.0515 393.94 107.184 394.764 118.72H367.16C366.748 114.188 364.825 110.617 361.392 108.008C358.096 105.261 353.633 103.888 348.002 103.888C342.783 103.888 338.732 104.849 335.848 106.772C333.101 108.695 331.728 111.373 331.728 114.806C331.728 118.651 333.651 121.604 337.496 123.664C341.341 125.587 347.315 127.578 355.418 129.638C363.658 131.698 370.456 133.827 375.812 136.024C381.168 138.221 385.769 141.655 389.614 146.324C393.597 150.856 395.657 156.899 395.794 164.452C395.794 171.044 393.94 176.949 390.232 182.168C386.661 187.387 381.443 191.507 374.576 194.528C367.847 197.412 359.95 198.854 350.886 198.854Z" fill="#F25D53"/>
<path d="M577.676 82.8761L544.304 197H513.198L492.392 117.278L471.586 197H440.274L406.696 82.8761H435.948L456.136 169.808L477.972 82.8761H508.46L529.884 169.602L550.072 82.8761H577.676Z" fill="#F25D53"/>
<path d="M607.906 69.2801C602.825 69.2801 598.568 67.7008 595.134 64.5421C591.838 61.2461 590.19 57.1948 590.19 52.3881C590.19 47.5815 591.838 43.5988 595.134 40.4401C598.568 37.1441 602.825 35.4961 607.906 35.4961C612.988 35.4961 617.176 37.1441 620.472 40.4401C623.906 43.5988 625.622 47.5815 625.622 52.3881C625.622 57.1948 623.906 61.2461 620.472 64.5421C617.176 67.7008 612.988 69.2801 607.906 69.2801ZM622.12 82.8761V197H593.28V82.8761H622.12Z" fill="#F25D53"/>
<path d="M679.454 99.3561C683.162 94.1375 688.244 89.8115 694.698 86.3781C701.29 82.8075 708.775 81.0221 717.152 81.0221C726.903 81.0221 735.692 83.4255 743.52 88.2321C751.486 93.0388 757.734 99.9055 762.266 108.832C766.936 117.621 769.27 127.853 769.27 139.526C769.27 151.199 766.936 161.568 762.266 170.632C757.734 179.559 751.486 186.494 743.52 191.438C735.692 196.382 726.903 198.854 717.152 198.854C708.775 198.854 701.359 197.137 694.904 193.704C688.587 190.271 683.437 185.945 679.454 180.726V251.384H650.614V82.8761H679.454V99.3561ZM739.812 139.526C739.812 132.659 738.37 126.754 735.486 121.81C732.74 116.729 729.032 112.883 724.362 110.274C719.83 107.665 714.886 106.36 709.53 106.36C704.312 106.36 699.368 107.733 694.698 110.48C690.166 113.089 686.458 116.935 683.574 122.016C680.828 127.097 679.454 133.071 679.454 139.938C679.454 146.805 680.828 152.779 683.574 157.86C686.458 162.941 690.166 166.855 694.698 169.602C699.368 172.211 704.312 173.516 709.53 173.516C714.886 173.516 719.83 172.143 724.362 169.396C729.032 166.649 732.74 162.735 735.486 157.654C738.37 152.573 739.812 146.53 739.812 139.526Z" fill="#F25D53"/>
<path d="M896.318 137.466C896.318 141.586 896.043 145.294 895.494 148.59H812.064C812.75 156.83 815.634 163.285 820.716 167.954C825.797 172.623 832.046 174.958 839.462 174.958C850.174 174.958 857.796 170.357 862.328 161.156H893.434C890.138 172.143 883.82 181.207 874.482 188.348C865.143 195.352 853.676 198.854 840.08 198.854C829.093 198.854 819.205 196.451 810.416 191.644C801.764 186.7 794.966 179.765 790.022 170.838C785.215 161.911 782.812 151.611 782.812 139.938C782.812 128.127 785.215 117.759 790.022 108.832C794.828 99.9055 801.558 93.0388 810.21 88.2321C818.862 83.4255 828.818 81.0221 840.08 81.0221C850.929 81.0221 860.611 83.3568 869.126 88.0261C877.778 92.6955 884.438 99.3561 889.108 108.008C893.914 116.523 896.318 126.342 896.318 137.466ZM866.448 129.226C866.31 121.81 863.632 115.905 858.414 111.51C853.195 106.978 846.809 104.712 839.256 104.712C832.114 104.712 826.072 106.909 821.128 111.304C816.321 115.561 813.368 121.535 812.27 129.226H866.448Z" fill="#F25D53"/>
<path d="M961.04 198.854C951.702 198.854 943.324 197.206 935.908 193.91C928.492 190.477 922.587 185.876 918.192 180.108C913.935 174.34 911.6 167.954 911.188 160.95H940.234C940.784 165.345 942.912 168.984 946.62 171.868C950.466 174.752 955.204 176.194 960.834 176.194C966.328 176.194 970.585 175.095 973.606 172.898C976.765 170.701 978.344 167.885 978.344 164.452C978.344 160.744 976.422 157.997 972.576 156.212C968.868 154.289 962.894 152.229 954.654 150.032C946.14 147.972 939.136 145.843 933.642 143.646C928.286 141.449 923.617 138.084 919.634 133.552C915.789 129.02 913.866 122.909 913.866 115.218C913.866 108.901 915.652 103.133 919.222 97.9141C922.93 92.6955 928.149 88.5755 934.878 85.5541C941.745 82.5328 949.779 81.0221 958.98 81.0221C972.576 81.0221 983.426 84.4555 991.528 91.3221C999.631 98.0515 1004.09 107.184 1004.92 118.72H977.314C976.902 114.188 974.98 110.617 971.546 108.008C968.25 105.261 963.787 103.888 958.156 103.888C952.938 103.888 948.886 104.849 946.002 106.772C943.256 108.695 941.882 111.373 941.882 114.806C941.882 118.651 943.805 121.604 947.65 123.664C951.496 125.587 957.47 127.578 965.572 129.638C973.812 131.698 980.61 133.827 985.966 136.024C991.322 138.221 995.923 141.655 999.768 146.324C1003.75 150.856 1005.81 156.899 1005.95 164.452C1005.95 171.044 1004.09 176.949 1000.39 182.168C996.816 187.387 991.597 191.507 984.73 194.528C978.001 197.412 970.104 198.854 961.04 198.854Z" fill="#F25D53"/>
<path d="M1022.21 139.938C1022.21 128.127 1024.61 117.827 1029.42 109.038C1034.22 100.111 1040.88 93.2448 1049.4 88.4381C1057.91 83.4941 1067.66 81.0221 1078.65 81.0221C1092.8 81.0221 1104.47 84.5928 1113.67 91.7341C1123.01 98.7381 1129.26 108.626 1132.42 121.398H1101.31C1099.66 116.454 1096.85 112.609 1092.86 109.862C1089.02 106.978 1084.21 105.536 1078.44 105.536C1070.2 105.536 1063.68 108.557 1058.87 114.6C1054.07 120.505 1051.66 128.951 1051.66 139.938C1051.66 150.787 1054.07 159.233 1058.87 165.276C1063.68 171.181 1070.2 174.134 1078.44 174.134C1090.12 174.134 1097.74 168.915 1101.31 158.478H1132.42C1129.26 170.838 1123.01 180.657 1113.67 187.936C1104.33 195.215 1092.66 198.854 1078.65 198.854C1067.66 198.854 1057.91 196.451 1049.4 191.644C1040.88 186.7 1034.22 179.833 1029.42 171.044C1024.61 162.117 1022.21 151.749 1022.21 139.938Z" fill="#F25D53"/>
<path d="M1204.22 198.854C1193.23 198.854 1183.35 196.451 1174.56 191.644C1165.77 186.7 1158.83 179.765 1153.75 170.838C1148.81 161.911 1146.33 151.611 1146.33 139.938C1146.33 128.265 1148.87 117.965 1153.96 109.038C1159.17 100.111 1166.25 93.2448 1175.17 88.4381C1184.1 83.4941 1194.06 81.0221 1205.04 81.0221C1216.03 81.0221 1225.99 83.4941 1234.91 88.4381C1243.84 93.2448 1250.84 100.111 1255.93 109.038C1261.14 117.965 1263.75 128.265 1263.75 139.938C1263.75 151.611 1261.08 161.911 1255.72 170.838C1250.5 179.765 1243.36 186.7 1234.3 191.644C1225.37 196.451 1215.34 198.854 1204.22 198.854ZM1204.22 173.722C1209.44 173.722 1214.31 172.486 1218.85 170.014C1223.52 167.405 1227.22 163.559 1229.97 158.478C1232.72 153.397 1234.09 147.217 1234.09 139.938C1234.09 129.089 1231.21 120.78 1225.44 115.012C1219.81 109.107 1212.87 106.154 1204.63 106.154C1196.39 106.154 1189.46 109.107 1183.83 115.012C1178.33 120.78 1175.59 129.089 1175.59 139.938C1175.59 150.787 1178.26 159.165 1183.62 165.07C1189.11 170.838 1195.98 173.722 1204.22 173.722Z" fill="#F25D53"/>
<path d="M1313.75 100.592C1317.46 94.5495 1322.26 89.8115 1328.17 86.3781C1334.21 82.9448 1341.08 81.2281 1348.77 81.2281V111.51H1341.15C1332.08 111.51 1325.22 113.639 1320.55 117.896C1316.02 122.153 1313.75 129.569 1313.75 140.144V197H1284.91V82.8761H1313.75V100.592Z" fill="#F25D53"/>
<path d="M1474.28 137.466C1474.28 141.586 1474.01 145.294 1473.46 148.59H1390.03C1390.72 156.83 1393.6 163.285 1398.68 167.954C1403.76 172.623 1410.01 174.958 1417.43 174.958C1428.14 174.958 1435.76 170.357 1440.29 161.156H1471.4C1468.1 172.143 1461.79 181.207 1452.45 188.348C1443.11 195.352 1431.64 198.854 1418.05 198.854C1407.06 198.854 1397.17 196.451 1388.38 191.644C1379.73 186.7 1372.93 179.765 1367.99 170.838C1363.18 161.911 1360.78 151.611 1360.78 139.938C1360.78 128.127 1363.18 117.759 1367.99 108.832C1372.8 99.9055 1379.52 93.0388 1388.18 88.2321C1396.83 83.4255 1406.79 81.0221 1418.05 81.0221C1428.9 81.0221 1438.58 83.3568 1447.09 88.0261C1455.74 92.6955 1462.41 99.3561 1467.07 108.008C1471.88 116.523 1474.28 126.342 1474.28 137.466ZM1444.41 129.226C1444.28 121.81 1441.6 115.905 1436.38 111.51C1431.16 106.978 1424.78 104.712 1417.22 104.712C1410.08 104.712 1404.04 106.909 1399.09 111.304C1394.29 115.561 1391.34 121.535 1390.24 129.226H1444.41Z" fill="#F25D53"/>
</svg>
